<?xml version="1.0" encoding="UTF-8" standalone="no"?>
<!DOCTYPE svg PUBLIC "-//W3C//DTD SVG 1.1//EN"
 "http://www.w3.org/Graphics/SVG/1.1/DTD/svg11.dtd">
<!-- Generated by graphviz version 2.40.1 (20161225.0304)
 -->
<!-- Title: Simple Pages: 1 -->
<svg width="421pt" height="164pt"
 viewBox="0.00 0.00 420.78 163.50" xmlns="http://www.w3.org/2000/svg" xmlns:xlink="http://www.w3.org/1999/xlink">
<g id="graph0" class="graph" transform="scale(1 1) rotate(0) translate(4 159.5)">
<title>Simple</title>
<polygon fill="#ffffff" stroke="transparent" points="-4,4 -4,-159.5 416.7832,-159.5 416.7832,4 -4,4"/>
<!-- human -->
<g id="node1" class="node">
<title>human</title>
<polygon fill="none" stroke="#000000" points="318.7832,-155.5 268.7832,-155.5 268.7832,-76.5 318.7832,-76.5 318.7832,-155.5"/>
<text text-anchor="middle" x="293.7832" y="-78.5" font-family="Helvetica,sans-Serif" font-size="10.00" fill="#000000">human</text>
</g>
<!-- world -->
<g id="node2" class="node">
<title>world</title>
<polygon fill="none" stroke="#000000" points="322.7832,-58 264.7832,-58 264.7832,0 322.7832,0 322.7832,-58"/>
</g>
<!-- human&#45;&gt;world -->
<g id="edge7" class="edge">
<title>human&#45;&gt;world</title>
<path fill="none" stroke="#000000" d="M293.7832,-76.2808C293.7832,-73.6479 293.7832,-71.015 293.7832,-68.382"/>
<polygon fill="#000000" stroke="#000000" points="297.2833,-68.2265 293.7832,-58.2266 290.2833,-68.2266 297.2833,-68.2265"/>
</g>
<!-- next -->
<g id="node6" class="node">
<title>next</title>
<polygon fill="none" stroke="#000000" points="412.7832,-135 358.7832,-135 358.7832,-97 412.7832,-97 412.7832,-135"/>
<text text-anchor="middle" x="385.7832" y="-113" font-family="Helvetica,sans-Serif" font-size="10.00" fill="#000000">next</text>
</g>
<!-- human&#45;&gt;next -->
<g id="edge6" class="edge">
<title>human&#45;&gt;next</title>
<path fill="none" stroke="#000000" d="M318.9226,-116C328.0834,-116 338.6445,-116 348.628,-116"/>
<polygon fill="#000000" stroke="#000000" points="348.7398,-119.5001 358.7398,-116 348.7398,-112.5001 348.7398,-119.5001"/>
</g>
<!-- server -->
<g id="node3" class="node">
<title>server</title>
<polygon fill="none" stroke="#000000" points="55.6752,-82 .108,-82 .108,-44 55.6752,-44 55.6752,-82"/>
<text text-anchor="middle" x="27.8916" y="-60" font-family="Helvetica,sans-Serif" font-size="10.00" fill="#000000">server</text>
</g>
<!-- another -->
<g id="node4" class="node">
<title>another</title>
<polygon fill="none" stroke="#000000" points="228.7832,-76 181.7832,-76 181.7832,-4 228.7832,-4 228.7832,-76"/>
<text text-anchor="middle" x="205.2832" y="-42" font-family="Helvetica,sans-Serif" font-size="10.00" fill="#000000">hello</text>
<text text-anchor="middle" x="205.2832" y="-32" font-family="Helvetica,sans-Serif" font-size="10.00" fill="#000000">world of</text>
</g>
<!-- server&#45;&gt;another -->
<g id="edge1" class="edge">
<title>server&#45;&gt;another</title>
<path fill="none" stroke="#000000" d="M55.9998,-59.3556C87.2945,-55.298 137.8652,-48.7412 171.3419,-44.4007"/>
<polygon fill="#000000" stroke="#000000" points="172.0973,-47.8322 181.5643,-43.0753 171.1972,-40.8903 172.0973,-47.8322"/>
</g>
<!-- test -->
<g id="node5" class="node">
<title>test</title>
<polygon fill="none" stroke="#000000" points="145.7832,-106 91.7832,-106 91.7832,-68 145.7832,-68 145.7832,-106"/>
<text text-anchor="middle" x="118.7832" y="-84" font-family="Helvetica,sans-Serif" font-size="10.00" fill="#000000">test</text>
</g>
<!-- server&#45;&gt;test -->
<g id="edge2" class="edge">
<title>server&#45;&gt;test</title>
<path fill="none" stroke="#000000" d="M56.152,-70.4622C64.2425,-72.5985 73.185,-74.9598 81.7191,-77.2132"/>
<polygon fill="#000000" stroke="#000000" points="80.912,-80.62 91.4742,-79.789 82.6992,-73.8519 80.912,-80.62"/>
</g>
<!-- another&#45;&gt;world -->
<g id="edge4" class="edge">
<title>another&#45;&gt;world</title>
<path fill="none" stroke="#000000" d="M228.9996,-37.0522C236.8749,-36.0733 245.8651,-34.9559 254.5897,-33.8715"/>
<polygon fill="#000000" stroke="#000000" points="255.1349,-37.3308 264.6268,-32.624 254.2715,-30.3842 255.1349,-37.3308"/>
</g>
<!-- test&#45;&gt;human -->
<g id="edge3" class="edge">
<title>test&#45;&gt;human</title>
<path fill="none" stroke="#000000" d="M146.127,-91.5313C176.4001,-96.5479 225.2936,-104.6503 258.4487,-110.1446"/>
<polygon fill="#000000" stroke="#000000" points="258.1792,-113.6476 268.6168,-111.8296 259.3236,-106.7417 258.1792,-113.6476"/>
</g>
<!-- test&#45;&gt;another -->
<g id="edge5" class="edge">
<title>test&#45;&gt;another</title>
<path fill="none" stroke="#000000" d="M146.1523,-72.1289C154.6014,-67.5381 163.9895,-62.4371 172.7512,-57.6763"/>
<polygon fill="#000000" stroke="#000000" points="174.4738,-60.7237 181.5895,-52.874 171.1318,-54.573 174.4738,-60.7237"/>
</g>
</g>
</svg>
